<svg id="visual" viewBox="0 0 900 600" width="900" height="600" xmlns="http://www.w3.org/2000/svg" xmlns:xlink="http://www.w3.org/1999/xlink" version="1.1"><rect x="0" y="0" width="900" height="600" fill="#f2e7c7"></rect><path d="M0 389L100 427L200 422L300 410L400 408L500 399L600 403L700 388L800 410L900 410L900 601L800 601L700 601L600 601L500 601L400 601L300 601L200 601L100 601L0 601Z" fill="#e1ac0f"></path><path d="M0 417L100 450L200 451L300 432L400 411L500 422L600 416L700 452L800 434L900 446L900 601L800 601L700 601L600 601L500 601L400 601L300 601L200 601L100 601L0 601Z" fill="#d89603"></path><path d="M0 459L100 465L200 462L300 454L400 441L500 443L600 455L700 466L800 447L900 445L900 601L800 601L700 601L600 601L500 601L400 601L300 601L200 601L100 601L0 601Z" fill="#cd8100"></path><path d="M0 483L100 492L200 487L300 487L400 473L500 488L600 486L700 501L800 480L900 465L900 601L800 601L700 601L600 601L500 601L400 601L300 601L200 601L100 601L0 601Z" fill="#c16b00"></path><path d="M0 512L100 505L200 495L300 496L400 509L500 507L600 513L700 511L800 485L900 496L900 601L800 601L700 601L600 601L500 601L400 601L300 601L200 601L100 601L0 601Z" fill="#b45700"></path><path d="M0 510L100 521L200 512L300 525L400 540L500 540L600 521L700 528L800 522L900 524L900 601L800 601L700 601L600 601L500 601L400 601L300 601L200 601L100 601L0 601Z" fill="#a64200"></path><path d="M0 543L100 562L200 540L300 549L400 541L500 540L600 557L700 535L800 563L900 561L900 601L800 601L700 601L600 601L500 601L400 601L300 601L200 601L100 601L0 601Z" fill="#972d01"></path><path d="M0 572L100 567L200 563L300 584L400 571L500 572L600 570L700 564L800 563L900 575L900 601L800 601L700 601L600 601L500 601L400 601L300 601L200 601L100 601L0 601Z" fill="#871400"></path></svg>